<svg width="208" height="418" viewBox="0 0 208 418" fill="none" xmlns="http://www.w3.org/2000/svg">
<path d="M207.043 106.835H205.368V156.636H207.043V106.835Z" stroke="#A7ACB0" stroke-miterlimit="10" stroke-linecap="round" stroke-linejoin="round"/>
<path d="M2.67508 136.771H1V167.687H2.67508V136.771Z" stroke="#A7ACB0" stroke-miterlimit="10" stroke-linecap="round" stroke-linejoin="round"/>
<path d="M2.67508 97.1506H1V128.067H2.67508V97.1506Z" stroke="#A7ACB0" stroke-miterlimit="10" stroke-linecap="round" stroke-linejoin="round"/>
<path d="M2.67508 67.323H1V82.4699H2.67508V67.323Z" stroke="#A7ACB0" stroke-miterlimit="10" stroke-linecap="round" stroke-linejoin="round"/>
<path d="M34.7581 416.89C23.8901 416.914 13.5835 411.281 7.74074 402.11C5.85395 399.162 4.44307 395.883 3.60687 392.484C3.03665 390.164 2.71996 387.748 2.67904 385.36C2.58119 384.108 2.73419 33.8366 2.67904 32.5431C2.67904 32.5423 2.69327 31.9889 2.69327 31.9889L2.71729 31.4356L2.7511 30.8832C2.91745 28.5045 3.35512 26.0999 4.04632 23.8164C6.70794 14.9153 13.322 7.44281 21.8441 3.72704C24.8776 2.39445 28.145 1.52622 31.4418 1.18462C32.5182 1.0841 33.6773 1.00493 34.759 1.01293C35.3363 1.08588 173.314 0.955107 173.838 1.01738C173.839 1.01738 174.393 1.03161 174.393 1.03161L174.947 1.05563L175.499 1.08943L176.052 1.13214C179.168 1.40346 182.273 2.13736 185.179 3.29826C191.183 5.68411 196.432 9.94252 200 15.3289C202.041 18.3971 203.556 21.8397 204.436 25.4176C204.781 26.8356 205.048 28.3274 205.197 29.7783C205.281 30.6741 205.353 31.6447 205.364 32.5414C205.65 32.6632 205.168 384.531 205.369 384.805C205.369 384.805 205.364 385.359 205.364 385.359L205.35 385.912L205.326 386.465C204.82 396.724 199.263 406.299 190.589 411.822C188.11 413.408 185.384 414.667 182.566 415.516C180.814 416.041 178.969 416.436 177.153 416.654C176.465 416.758 175.639 416.794 174.947 416.845C174.449 416.863 173.783 416.893 173.286 416.888C173.286 416.89 34.7581 416.89 34.7581 416.89Z" fill="white" stroke="#A7ACB0" stroke-miterlimit="10" stroke-linecap="round" stroke-linejoin="round"/>
<mask id="mask0_1_17688" style="mask-type:luminance" maskUnits="userSpaceOnUse" x="12" y="10" width="185" height="398">
<path d="M153.298 15.674C153.311 19.1754 151.496 22.5273 148.561 24.431C147.65 25.027 146.643 25.4798 145.593 25.7671C145 25.9299 144.387 26.0385 143.776 26.0945C143.545 26.1203 143.3 26.1247 143.068 26.1345C142.76 25.9442 65.4383 26.2777 65.0922 26.1363C64.8236 26.1372 64.5354 26.1167 64.2676 26.0954C62.6139 25.9477 60.9957 25.3962 59.5946 24.5048C58.1161 23.5672 56.8796 22.2488 56.0381 20.7143C55.2304 19.2474 54.7829 17.5812 54.7473 15.907L54.7455 15.7905L54.7447 15.6749V13.3371V13.297L54.7438 13.257C54.7375 13.0711 54.7073 12.8798 54.6566 12.7001C54.4965 12.1077 54.0517 11.5623 53.5295 11.2866C53.1879 11.0998 52.7974 10.9992 52.4077 11.0001C51.3305 11.0651 32.3335 10.8747 31.6298 11.1087C29.9592 11.2786 28.2975 11.6513 26.714 12.2117C21.7706 13.9429 17.5354 17.5848 15.0855 22.215C14.1861 23.9026 13.5127 25.7209 13.099 27.5872C12.817 28.8602 12.6498 30.1705 12.6071 31.4738C12.3616 32.7832 12.753 384.583 12.6 386.007C12.616 386.548 12.6462 387.143 12.7041 387.683C13.4905 395.582 18.7523 402.496 26.2239 405.326C27.6508 405.868 29.147 406.265 30.6575 406.487C31.2918 406.572 31.9537 406.656 32.5933 406.685C32.8922 406.693 33.2427 406.719 33.5416 406.717C33.7373 406.822 174.051 406.644 174.272 406.718C174.73 406.706 175.235 406.71 175.693 406.67L175.934 406.653C177.769 406.508 179.596 406.121 181.333 405.506C183.177 404.853 184.941 403.939 186.536 402.806C191.827 399.071 195.162 392.952 195.431 386.482C195.811 386.459 195.202 32.5155 195.454 32.1819C195.45 31.6401 195.432 31.0592 195.388 30.5184C195.27 29.0283 194.992 27.5374 194.563 26.1061C193.929 23.9871 192.956 21.9597 191.698 20.1405C190.095 17.8196 188.017 15.819 185.635 14.3067C182.664 12.4146 179.21 11.2821 175.695 11.0491C175.397 11.025 175.042 11.0161 174.743 11.0064L174.508 11.0028L174.273 11.0019H155.64C155.604 11.0001 155.554 11.0046 155.519 11.0055C155.223 11.0215 154.931 11.0926 154.662 11.2163C154.005 11.5179 153.538 12.1014 153.37 12.7802C153.335 12.9243 153.313 13.0711 153.305 13.2187C153.305 13.2534 153.302 13.305 153.302 13.3397C153.298 13.3362 153.298 15.674 153.298 15.674Z" fill="white" stroke="white" stroke-miterlimit="10" stroke-linecap="round" stroke-linejoin="round"/>
</mask>
<g mask="url(#mask0_1_17688)">
<path d="M153.298 15.674C153.311 19.1754 151.496 22.5273 148.561 24.431C147.65 25.027 146.643 25.4798 145.593 25.7671C145 25.9299 144.387 26.0385 143.776 26.0945C143.545 26.1203 143.3 26.1247 143.068 26.1345C142.76 25.9442 65.4383 26.2777 65.0922 26.1363C64.8236 26.1372 64.5354 26.1167 64.2676 26.0954C62.6139 25.9477 60.9957 25.3962 59.5946 24.5048C58.1161 23.5672 56.8796 22.2488 56.0381 20.7143C55.2304 19.2474 54.7829 17.5812 54.7473 15.907L54.7455 15.7905L54.7447 15.6749V13.3371V13.297L54.7438 13.257C54.7375 13.0711 54.7073 12.8798 54.6566 12.7001C54.4965 12.1077 54.0517 11.5623 53.5295 11.2866C53.1879 11.0998 52.7974 10.9992 52.4077 11.0001C51.3305 11.0651 32.3335 10.8747 31.6298 11.1087C29.9592 11.2786 28.2975 11.6513 26.714 12.2117C21.7706 13.9429 17.5354 17.5848 15.0855 22.215C14.1861 23.9026 13.5127 25.7209 13.099 27.5872C12.817 28.8602 12.6498 30.1705 12.6071 31.4738C12.3616 32.7832 12.753 384.583 12.6 386.007C12.616 386.548 12.6462 387.143 12.7041 387.683C13.4905 395.582 18.7523 402.496 26.2239 405.326C27.6508 405.868 29.147 406.265 30.6575 406.487C31.2918 406.572 31.9537 406.656 32.5933 406.685C32.8922 406.693 33.2427 406.719 33.5416 406.717C33.7373 406.822 174.051 406.644 174.272 406.718C174.73 406.706 175.235 406.71 175.693 406.67L175.934 406.653C177.769 406.508 179.596 406.121 181.333 405.506C183.177 404.853 184.941 403.939 186.536 402.806C191.827 399.071 195.162 392.952 195.431 386.482C195.811 386.459 195.202 32.5155 195.454 32.1819C195.45 31.6401 195.432 31.0592 195.388 30.5184C195.27 29.0283 194.992 27.5374 194.563 26.1061C193.929 23.9871 192.956 21.9597 191.698 20.1405C190.095 17.8196 188.017 15.819 185.635 14.3067C182.664 12.4146 179.21 11.2821 175.695 11.0491C175.397 11.025 175.042 11.0161 174.743 11.0064L174.508 11.0028L174.273 11.0019H155.64C155.604 11.0001 155.554 11.0046 155.519 11.0055C155.223 11.0215 154.931 11.0926 154.662 11.2163C154.005 11.5179 153.538 12.1014 153.37 12.7802C153.335 12.9243 153.313 13.0711 153.305 13.2187C153.305 13.2534 153.302 13.305 153.302 13.3397C153.298 13.3362 153.298 15.674 153.298 15.674Z" fill="black"/>
<path d="M153.298 15.674C153.311 19.1754 151.496 22.5273 148.561 24.431C147.65 25.027 146.643 25.4798 145.593 25.7671C145 25.9299 144.387 26.0385 143.776 26.0945C143.545 26.1203 143.3 26.1247 143.068 26.1345C142.76 25.9442 65.4383 26.2777 65.0922 26.1363C64.8236 26.1372 64.5354 26.1167 64.2676 26.0954C62.6139 25.9477 60.9957 25.3962 59.5946 24.5048C58.1162 23.5672 56.8796 22.2488 56.0381 20.7143C55.2304 19.2474 54.7829 17.5812 54.7473 15.907L54.7455 15.7905L54.7447 15.6749V13.3371V13.297L54.7438 13.257C54.7375 13.0711 54.7073 12.8798 54.6566 12.7001C54.4965 12.1077 54.0517 11.5623 53.5295 11.2866C53.1879 11.0998 52.7974 10.9992 52.4077 11.0001C51.3305 11.0651 32.3335 10.8747 31.6298 11.1087C29.9592 11.2786 28.2975 11.6513 26.714 12.2117C21.7707 13.9429 17.5354 17.5848 15.0855 22.215C14.1861 23.9026 13.5127 25.7209 13.099 27.5872C12.817 28.8602 12.6498 30.1705 12.6071 31.4738C12.3616 32.7832 12.753 384.583 12.6 386.007C12.616 386.548 12.6462 387.143 12.7041 387.683C13.4905 395.582 18.7523 402.496 26.2239 405.326C27.6508 405.868 29.147 406.265 30.6575 406.487C31.2918 406.572 31.9537 406.656 32.5933 406.685C32.8922 406.693 33.2427 406.719 33.5416 406.717C33.7373 406.822 174.051 406.644 174.272 406.718C174.73 406.706 175.235 406.71 175.693 406.67L175.934 406.653C177.769 406.508 179.596 406.121 181.333 405.506C183.177 404.853 184.941 403.939 186.536 402.806C191.827 399.071 195.162 392.952 195.431 386.482C195.811 386.459 195.202 32.5155 195.454 32.1819C195.45 31.6401 195.432 31.0592 195.388 30.5184C195.27 29.0283 194.992 27.5374 194.563 26.1061C193.929 23.9871 192.956 21.9597 191.698 20.1405C190.095 17.8196 188.017 15.819 185.635 14.3067C182.664 12.4146 179.21 11.2821 175.695 11.0491C175.397 11.025 175.042 11.0161 174.743 11.0064L174.508 11.0028L174.273 11.0019H155.64C155.604 11.0001 155.554 11.0046 155.519 11.0055C155.223 11.0215 154.931 11.0926 154.662 11.2163C154.005 11.5179 153.538 12.1014 153.37 12.7802C153.335 12.9243 153.313 13.0711 153.305 13.2187C153.305 13.2534 153.302 13.305 153.302 13.3397C153.298 13.3362 153.298 15.674 153.298 15.674Z" stroke="#A7ACB0" stroke-miterlimit="10" stroke-linecap="round" stroke-linejoin="round"/>
</g>
<path d="M104.022 18.0803H94.7084C94.5447 18.0812 94.4042 18.0598 94.2672 18.0296C93.7272 17.9059 93.27 17.543 93.0173 17.0804C92.3074 15.7781 93.262 14.2213 94.7075 14.2222C99.3502 14.2231 108.693 14.2213 113.335 14.2222C113.559 14.2213 113.766 14.2613 113.956 14.3245C115.101 14.7097 115.598 16.0547 115.026 17.0804C114.763 17.5661 114.289 17.9104 113.777 18.0296C113.641 18.0643 113.497 18.0767 113.379 18.0803C113.366 18.0856 104.045 18.0758 104.022 18.0803Z" stroke="#A7ACB0" stroke-miterlimit="10" stroke-linecap="round" stroke-linejoin="round"/>
<path d="M128.23 16.1509C128.232 15.4321 127.985 14.7151 127.543 14.1493C127.103 13.5809 126.469 13.1664 125.771 12.992C123.703 12.4698 121.695 14.0462 121.713 16.1794C121.733 18.2894 123.726 19.8266 125.771 19.3098C126.469 19.1345 127.103 18.7209 127.542 18.1524C127.985 17.5867 128.232 16.8697 128.23 16.1509Z" stroke="#A7ACB0" stroke-miterlimit="10" stroke-linecap="round" stroke-linejoin="round"/>
<path d="M202.31 370.964H205.368M205.368 375.234H202.31M2.6748 370.964H5.73317M5.73317 375.234H2.6748M2.6748 42.8799H5.73317M5.73317 47.1499H2.6748M202.31 42.8799H205.368M205.368 47.1499H202.31M165.627 1.01367V4.07205M161.356 4.07205V1.01367M47.2864 413.831V416.89M43.0164 416.89V413.831M34.7576 413.831C24.9295 413.855 15.597 408.755 10.3155 400.46C8.60843 397.794 7.33277 394.827 6.57574 391.753C6.06068 389.654 5.77334 387.469 5.73687 385.308C5.64258 384.136 5.79025 33.8106 5.73687 32.5963L5.75021 32.0946L5.77157 31.5938C5.88454 29.4392 6.24304 27.2571 6.83283 25.1817C8.90555 17.7706 14.0607 11.3016 20.8277 7.633C23.1646 6.35646 25.7026 5.39037 28.2992 4.79969C29.7493 4.47411 31.2722 4.24015 32.7551 4.14141C33.0024 4.10315 33.5068 4.11383 33.7559 4.08981C34.0041 4.05779 34.5094 4.08981 34.7576 4.07291C35.2744 4.12006 173.313 4.03377 173.784 4.07736C174.758 4.10493 175.817 4.16009 176.783 4.28463C184.775 5.22847 192.221 9.639 196.883 16.1996C197.547 17.139 198.2 18.1567 198.748 19.1673C200.428 22.239 201.553 25.6336 202.033 29.1021C202.162 30.0779 202.262 31.1143 202.292 32.0955C202.536 33.4477 202.158 383.779 202.305 385.307L202.292 385.809L202.271 386.31L202.24 386.81L202.201 387.309C202.042 389.122 201.707 390.969 201.209 392.722C199.137 400.133 193.981 406.602 187.214 410.27C185.025 411.466 182.654 412.393 180.23 412.988C178.95 413.297 177.596 413.544 176.285 413.676C175.654 413.721 174.918 413.806 174.286 413.814C174.038 413.846 173.533 413.814 173.285 413.831H34.7576Z" stroke="#A7ACB0" stroke-opacity="0.3" stroke-miterlimit="10" stroke-linecap="round" stroke-linejoin="round"/>
</svg>
